<svg version="1.1" xmlns="http://www.w3.org/2000/svg" xmlns:xlink="http://www.w3.org/1999/xlink" width="354.35436" height="202.7027" viewBox="0,0,354.35436,202.7027"><g transform="translate(-62.82283,-78.64865)"><g data-paper-data="{&quot;isPaintingLayer&quot;:true}" fill-rule="nonzero" stroke-linejoin="miter" stroke-miterlimit="10" stroke-dasharray="" stroke-dashoffset="0" style="mix-blend-mode: normal"><path d="M417.17719,180c0,55.97481 -79.32492,101.35135 -177.17718,101.35135c-97.85225,0 -177.17718,-45.37655 -177.17718,-101.35135c0,-55.97481 79.32492,-101.35135 177.17718,-101.35135c97.85225,0 177.17718,45.37655 177.17718,101.35135z" fill="#000000" stroke="none" stroke-width="0" stroke-linecap="butt"/><g stroke="#00c1ff" stroke-width="3.5"><path d="M198.13669,127.01708l-8.8856,-36.90181l25.48888,-6.13748l8.7024,36.14095" fill="none" stroke-linecap="round"/><path d="M198.73212,129.48989c0.78417,3.25665 -2.07179,6.73744 -6.37897,7.77457c-4.30718,1.03713 -8.43453,-0.76215 -9.2187,-4.0188c-0.78417,-3.25665 2.07179,-6.73744 6.37897,-7.77457c4.30718,-1.03713 8.43453,0.76215 9.2187,4.0188z" fill="#00c1ff" stroke-linecap="butt"/><path d="M224.31333,122.43576c0.78417,3.25665 -2.0718,6.73744 -6.37897,7.77457c-4.30718,1.03713 -8.43452,-0.76215 -9.21869,-4.0188c-0.78417,-3.25665 2.07179,-6.73744 6.37896,-7.77457c4.30719,-1.03713 8.43453,0.76215 9.2187,4.0188z" fill="#00c1ff" stroke-linecap="butt"/></g><g stroke="#00c1ff" stroke-width="3.5"><path d="M301.37915,146.20673l-11.91058,-36.03936l24.89317,-8.2269l11.665,35.29628" fill="none" stroke-linecap="round"/><path d="M302.17729,148.62174c1.05113,3.18054 -1.50681,6.88585 -5.71333,8.27606c-4.20651,1.39021 -8.46868,-0.06115 -9.51981,-3.24169c-1.05113,-3.18054 1.50681,-6.88585 5.71333,-8.27606c4.20651,-1.39021 8.46868,0.06115 9.51981,3.24169z" fill="#00c1ff" stroke-linecap="butt"/><path d="M327.08656,139.4737c1.05113,3.18054 -1.50682,6.88585 -5.71333,8.27606c-4.20651,1.39021 -8.46866,-0.06115 -9.51979,-3.24169c-1.05113,-3.18054 1.50681,-6.88585 5.71332,-8.27605c4.20652,-1.3902 8.46867,0.06115 9.5198,3.24168z" fill="#00c1ff" stroke-linecap="butt"/></g><g stroke="#00c1ff" stroke-width="3.5"><path d="M279.39441,251.85525l-20.60975,-31.87374l22.01588,-14.2356l20.18482,31.21655" fill="none" stroke-linecap="round"/><path d="M280.77548,253.99112c1.81885,2.81292 0.27742,7.04333 -3.44289,9.4489c-3.7203,2.40557 -8.21067,2.07535 -10.02952,-0.73756c-1.81885,-2.81292 -0.27742,-7.04333 3.44289,-9.4489c3.7203,-2.40557 8.21067,-2.07535 10.02952,0.73756z" fill="#00c1ff" stroke-linecap="butt"/><path d="M302.57478,238.86005c1.81885,2.81292 0.27741,7.04333 -3.44289,9.4489c-3.7203,2.40557 -8.21066,2.07535 -10.02951,-0.73757c-1.81885,-2.81292 -0.27741,-7.04332 3.44289,-9.44889c3.72031,-2.40557 8.21067,-2.07536 10.02952,0.73756z" fill="#00c1ff" stroke-linecap="butt"/></g><g stroke="#00c1ff" stroke-width="3.5"><path d="M176.08647,248.81078l13.93479,-35.30607l24.38667,9.62506l-13.64747,34.57812" fill="none" stroke-linecap="round"/><path d="M175.1527,251.17665c-1.22977,3.11582 -5.56736,4.32318 -9.68829,2.69672c-4.12092,-1.62647 -6.46467,-5.47086 -5.2349,-8.58668c1.22977,-3.11582 5.56736,-4.32318 9.68829,-2.69672c4.12092,1.62647 6.46467,5.47086 5.2349,8.58668z" fill="#00c1ff" stroke-linecap="butt"/><path d="M200.1417,260.1046c-1.22977,3.11582 -5.56737,4.32318 -9.68829,2.69672c-4.12092,-1.62647 -6.46466,-5.47085 -5.23489,-8.58667c1.22977,-3.11582 5.56736,-4.32318 9.68828,-2.69672c4.12093,1.62647 6.46467,5.47085 5.2349,8.58667z" fill="#00c1ff" stroke-linecap="butt"/></g><path d="M125.78208,238.77814h229.71429" fill="none" stroke="#976700" stroke-width="7.5" stroke-linecap="round"/><g fill="none" stroke="#976700" stroke-width="7.5" stroke-linecap="butt"><g><path d="M222.37133,203.38911c-8.35404,11.85966 -21.76057,19.54776 -36.87497,19.54776c-25.3262,0 -45.85714,-21.58627 -45.85714,-48.21429c0,-26.62802 20.53095,-48.21428 45.85715,-48.21428c10.80102,0 20.72986,3.92615 28.56595,10.49512l-15.16052,16.26149"/><path d="M246.23513,193.48714l-37.56221,-0.20003c-5.10034,7.24059 -13.28534,11.93436 -22.51303,11.93436c-15.46223,0 -27.99686,-13.17893 -27.99686,-29.43595c0,-16.25703 12.53463,-29.43595 27.99686,-29.43595c6.59427,0 12.65607,2.397 17.44018,6.40751"/></g><g><path d="M326.26022,202.38911c-8.35404,11.85966 -21.76057,19.54776 -36.87496,19.54776c-25.3262,0 -45.85714,-21.58627 -45.85714,-48.21429c0,-26.62802 20.53094,-48.21428 45.85714,-48.21428c10.80102,0 20.72987,3.92615 28.56595,10.49512l-15.16052,16.26149"/><path d="M326.12401,207.15381l-13.56221,-14.8667c-5.10033,7.24059 -13.28533,11.93436 -22.51302,11.93436c-15.46224,0 -27.99686,-13.17893 -27.99686,-29.43595c0,-16.25703 12.53462,-29.43595 27.99686,-29.43595c6.59427,0 12.65607,2.397 17.44018,6.40751"/></g></g><path d="M355.58333,232.99553h-229.71429" fill="none" stroke="#eba100" stroke-width="7.5" stroke-linecap="round"/><g fill="none" stroke="#eba100" stroke-width="7.5" stroke-linecap="butt"><g><path d="M222.45829,197.6065c-8.35404,11.85966 -21.76057,19.54776 -36.87497,19.54776c-25.3262,0 -45.85714,-21.58627 -45.85714,-48.21429c0,-26.62802 20.53095,-48.21428 45.85715,-48.21428c10.80102,0 20.72986,3.92615 28.56595,10.49512l-15.16052,16.26149"/><path d="M246.32209,187.70453l-37.56221,-0.20003c-5.10034,7.24059 -13.28534,11.93436 -22.51303,11.93436c-15.46223,0 -27.99686,-13.17893 -27.99686,-29.43595c0,-16.25703 12.53463,-29.43595 27.99686,-29.43595c6.59427,0 12.65607,2.397 17.44018,6.40751"/></g><g><path d="M326.34718,196.6065c-8.35404,11.85966 -21.76057,19.54776 -36.87496,19.54776c-25.3262,0 -45.85714,-21.58627 -45.85714,-48.21429c0,-26.62802 20.53094,-48.21428 45.85714,-48.21428c10.80102,0 20.72987,3.92615 28.56595,10.49512l-15.16052,16.26149"/><path d="M326.21097,201.3712l-13.56221,-14.8667c-5.10033,7.24059 -13.28533,11.93436 -22.51302,11.93436c-15.46224,0 -27.99686,-13.17893 -27.99686,-29.43595c0,-16.25703 12.53462,-29.43595 27.99686,-29.43595c6.59427,0 12.65607,2.397 17.44018,6.40751"/></g></g><g stroke="#00c1ff" stroke-width="3.5"><path d="M101.64282,178.78684l8.73866,-36.93688l25.5131,6.03598l-8.55848,36.1753" fill="none" stroke-linecap="round"/><path d="M101.05724,181.26199c-0.7712,3.25975 -4.89136,5.07544 -9.20263,4.05546c-4.31127,-1.01997 -7.18107,-4.48937 -6.40987,-7.74912c0.7712,-3.25975 4.89136,-5.07544 9.20263,-4.05546c4.31127,1.01997 7.18107,4.48937 6.40987,7.74912z" fill="#00c1ff" stroke-linecap="butt"/><path d="M127.06672,186.52184c-0.7712,3.25975 -4.89137,5.07543 -9.20263,4.05546c-4.31127,-1.01997 -7.18106,-4.48937 -6.40986,-7.74912c0.7712,-3.25975 4.89136,-5.07544 9.20262,-4.05546c4.31128,1.01998 7.18107,4.48937 6.40987,7.74912z" fill="#00c1ff" stroke-linecap="butt"/></g><g stroke="#00c1ff" stroke-width="3.5"><path d="M355.76695,206.17691l-17.80038,-33.52378l23.1556,-12.29511l17.43336,32.83257" fill="none" stroke-linecap="round"/><path d="M356.95977,208.42335c1.57092,2.95853 -0.32763,7.04117 -4.24053,9.11883c-3.91289,2.07766 -8.3584,1.36357 -9.92932,-1.59496c-1.57092,-2.95853 0.32763,-7.04117 4.24053,-9.11883c3.91289,-2.07766 8.3584,-1.36357 9.92932,1.59496z" fill="#00c1ff" stroke-linecap="butt"/><path d="M379.97638,195.2175c1.57092,2.95853 -0.32764,7.04117 -4.24053,9.11883c-3.91289,2.07766 -8.35839,1.36357 -9.92931,-1.59496c-1.57092,-2.95853 0.32763,-7.04117 4.24053,-9.11883c3.9129,-2.07767 8.3584,-1.36357 9.92931,1.59496z" fill="#00c1ff" stroke-linecap="butt"/></g></g></g></svg>