<svg version="1.1" xmlns="http://www.w3.org/2000/svg" xmlns:xlink="http://www.w3.org/1999/xlink" width="354.35436" height="202.7027" viewBox="0,0,354.35436,202.7027"><g transform="translate(-62.82283,-78.64865)"><g data-paper-data="{&quot;isPaintingLayer&quot;:true}" fill-rule="nonzero" stroke-linejoin="miter" stroke-miterlimit="10" stroke-dasharray="" stroke-dashoffset="0" style="mix-blend-mode: normal"><path d="M417.17719,180c0,55.97481 -79.32492,101.35135 -177.17718,101.35135c-97.85225,0 -177.17718,-45.37655 -177.17718,-101.35135c0,-55.97481 79.32492,-101.35135 177.17718,-101.35135c97.85225,0 177.17718,45.37655 177.17718,101.35135z" fill="#000000" stroke="none" stroke-width="0" stroke-linecap="butt"/><g stroke-width="7.5" stroke-linecap="butt"><path d="M315.43021,192.11381l17.09569,-58.00323l70.66591,20.82784l-17.09569,58.00323z" fill="#eda200" stroke="#eda200"/><path d="M315.02173,191.99342l16.73451,-56.77781l55.96086,16.49373l-16.73451,56.77781z" fill="#da9500" stroke="#da9500"/></g><g stroke-width="7.5" stroke-linecap="butt"><path d="M147.2716,134.36946l23.4573,55.73502l-67.90252,28.57826l-23.4573,-55.73502z" fill="#eda200" stroke="#eda200"/><path d="M147.6641,134.20427l22.96172,54.55752l-53.77252,22.63134l-22.96172,-54.55751z" fill="#da9500" stroke="#da9500"/></g><path d="M330.38213,236.87097h-180.98456v-101.48667l33.54699,33.54698l34.11079,-34.1108v80.62552h23.68023v-82.31697l36.08415,33.26508l34.3927,-32.70126v80.62552h-14.65918v-32.70126l-18.32398,17.19635l-19.16971,-18.60588l0.56382,35.23843h-60.04628l-0.56382,-33.26507l-16.06872,13.81346l-14.9411,-12.68583l0.56382,32.13744" fill="none" stroke="#976700" stroke-width="7.5" stroke-linecap="round"/><path d="M330.49228,231.87096h-180.98456v-101.48667l33.54698,33.54698l34.11079,-34.1108v80.62552h23.68023v-82.31696l36.08415,33.26507l34.3927,-32.70126v80.62552h-14.65918v-32.70126l-18.32398,17.19635l-19.1697,-18.60589l0.56381,35.23843h-60.04628l-0.56381,-33.26507l-16.06872,13.81346l-14.94109,-12.68583l0.56381,32.13744" fill="none" stroke="#eba100" stroke-width="7.5" stroke-linecap="round"/></g></g></svg>