<svg viewBox="0,0,354.35435,202.7027" height="202.7027" width="354.35435" xmlns:xlink="http://www.w3.org/1999/xlink" xmlns="http://www.w3.org/2000/svg" version="1.1"><g transform="translate(-62.82282,-78.64865)"><g style="mix-blend-mode: normal" stroke-dashoffset="0" stroke-dasharray="" stroke-miterlimit="10" stroke-linejoin="miter" fill-rule="nonzero" data-paper-data="{&quot;isPaintingLayer&quot;:true}"><path stroke-linecap="butt" stroke-width="0" stroke="none" fill="#000000" d="M417.17718,180c0,55.97481 -79.32492,101.35135 -177.17718,101.35135c-97.85225,0 -177.17718,-45.37655 -177.17718,-101.35135c0,-55.97481 79.32492,-101.35135 177.17718,-101.35135c97.85225,0 177.17718,45.37655 177.17718,101.35135z"></path><g stroke-linecap="round" stroke="#976700" fill="none"><g stroke-width="7.5"><path d="M142.20834,205.73426c0,0 11.36869,-48.91179 13.30086,-57.22467c0.53832,-2.31606 1.69914,-1.442 1.69914,-1.442c0,0 0.48018,-0.41396 1.54238,1.98121c2.74854,6.1977 14.79094,33.35213 14.79094,33.35213"></path><path data-paper-data="{&quot;index&quot;:null}" d="M173.54167,182.40093c0,0 12.4736,-28.12676 15.10675,-34.06425c0.93216,-2.10195 1.55991,-1.60242 1.55991,-1.60242c0,0 0.8767,-0.3289 1.45639,2.1651c1.98814,8.55363 13.21027,56.83491 13.21027,56.83491"></path></g><path stroke-width="7.5" d="M142.125,205.81759h12.16666"></path><path stroke-width="7.5" d="M192.625,205.81759h12.16666"></path><g stroke-width="7.5"><path d="M161.125,192.48426l12.5,29.33333"></path><path data-paper-data="{&quot;index&quot;:null}" d="M186.29167,192.15093l-12.5,29.33334"></path></g><path stroke-width="7.5" d="M238.98231,192.68121h-14.6235v14.35762c0,0 35.29911,9.8075 35.1446,-14.82234c-0.11082,-17.6654 -36.79338,-9.6009 -37.00577,-29.57993c-0.2618,-24.62623 32.70346,-16.21879 32.70346,-16.21879v12.76233h-16.21879z"></path><path stroke-width="7" d="M298.74084,147.85216c0,0 0.60316,-1.56755 3.13083,-1.10765c9.37895,1.70646 31.48647,8.38017 31.6535,33.38895c0.22082,33.06442 -55.38433,28.85204 -55.38433,28.85204c0,0 -1,-52.2184 -1,-60.91066c0,-2.52568 3,-2.22268 3,-2.22268c0,0 2.15148,0.51904 2.95488,2.99266c0.45056,1.38726 4.8814,33.86421 6.0437,42.06227c0.47649,3.36082 1.53476,4.74508 1.53476,4.74508c0,0 1.1008,2.11219 3.13405,1.79658c4.80093,-0.74523 8.32326,-1.26785 13.43113,-2.14827c4.83474,-0.83334 12.68784,-5.42172 13.55046,-12.38729c2.26131,-18.26007 -15.52773,-20.43494 -21.30226,-24.33208c-1.093,-0.73765 -1.0779,-2.15905 -1.0779,-2.15905c0,0 -0.66704,-0.95543 -0.66743,-3.01407c-0.00029,-1.52956 -0.00059,-3.11611 -0.00076,-3.99988c-0.00025,-1.31471 0.99939,-1.55594 0.99939,-1.55594z"></path><path stroke-width="7.5" d="M173.66168,221.78518"></path><path stroke-width="7.5" d="M173.89549,221.88507h155.33333"></path></g><g stroke-linecap="round" stroke="#eba100" fill="none"><g stroke-width="7.5"><path d="M141.20834,203.23426c0,0 11.36869,-48.91179 13.30086,-57.22467c0.53832,-2.31606 1.69914,-1.442 1.69914,-1.442c0,0 0.48018,-0.41396 1.54238,1.98121c2.74854,6.1977 14.79094,33.35213 14.79094,33.35213"></path><path data-paper-data="{&quot;index&quot;:null}" d="M172.54167,179.90093c0,0 12.4736,-28.12676 15.10675,-34.06425c0.93216,-2.10195 1.55991,-1.60242 1.55991,-1.60242c0,0 0.8767,-0.3289 1.45639,2.1651c1.98814,8.55363 13.21027,56.83491 13.21027,56.83491"></path></g><path stroke-width="7.5" d="M141.125,203.31759h12.16666"></path><path stroke-width="7.5" d="M191.625,203.31759h12.16666"></path><g stroke-width="7.5"><path d="M160.125,189.98426l12.5,29.33333"></path><path data-paper-data="{&quot;index&quot;:null}" d="M185.29167,189.65093l-12.5,29.33334"></path></g><path stroke-width="7.5" d="M237.98231,190.18121h-14.6235v14.35762c0,0 35.29911,9.8075 35.1446,-14.82234c-0.11082,-17.6654 -36.79338,-9.6009 -37.00577,-29.57993c-0.2618,-24.62623 32.70346,-16.21879 32.70346,-16.21879v12.76233h-16.21879z"></path><path stroke-width="7" d="M297.74084,145.35216c0,0 0.60316,-1.56755 3.13083,-1.10765c9.37895,1.70646 31.48647,8.38017 31.6535,33.38895c0.22082,33.06442 -55.38433,28.85204 -55.38433,28.85204c0,0 -1,-52.2184 -1,-60.91066c0,-2.52568 3,-2.22268 3,-2.22268c0,0 2.15148,0.51904 2.95488,2.99266c0.45056,1.38726 4.8814,33.86421 6.0437,42.06227c0.47649,3.36082 1.53476,4.74508 1.53476,4.74508c0,0 1.1008,2.11219 3.13405,1.79658c4.80093,-0.74523 8.32326,-1.26785 13.43113,-2.14827c4.83474,-0.83334 12.68784,-5.42172 13.55046,-12.38729c2.26131,-18.26007 -15.52773,-20.43494 -21.30226,-24.33208c-1.093,-0.73765 -1.0779,-2.15905 -1.0779,-2.15905c0,0 -0.66704,-0.95543 -0.66743,-3.01407c-0.00029,-1.52956 -0.00059,-3.11611 -0.00076,-3.99988c-0.00025,-1.31471 0.99939,-1.55594 0.99939,-1.55594z"></path><path stroke-width="7.5" d="M172.66168,219.28518"></path><path stroke-width="7.5" d="M172.89549,219.38507h155.33333"></path></g></g></g></svg>