<svg version="1.1" xmlns="http://www.w3.org/2000/svg" xmlns:xlink="http://www.w3.org/1999/xlink" width="357.49529" height="205.33081" viewBox="0,0,357.49529,205.33081"><g transform="translate(-62.82282,-76.9678)"><g data-paper-data="{&quot;isPaintingLayer&quot;:true}" fill-rule="nonzero" stroke-linejoin="miter" stroke-miterlimit="10" stroke-dasharray="" stroke-dashoffset="0" style="mix-blend-mode: normal"><path d="M417.17718,180c0,55.97481 -79.32492,101.35135 -177.17718,101.35135c-97.85225,0 -177.17718,-45.37655 -177.17718,-101.35135c0,-55.97481 79.32492,-101.35135 177.17718,-101.35135c97.85225,0 177.17718,45.37655 177.17718,101.35135z" fill="#000000" stroke="none" stroke-width="0" stroke-linecap="butt"/><path d="M78.58309,133.50056c3.2666,-1.83647 5.62704,-4.55152 8.81958,-6.54686c1.38971,-1.19673 2.9271,-2.3298 4.40033,-3.52305c0.27796,-0.23961 0.56175,-0.4739 0.85038,-0.70367c0.99796,-0.84626 1.94533,-1.73298 2.77166,-2.70136c2.44935,-2.87041 4.17255,-6.43735 6.87751,-9.13746c1.89242,-1.88903 4.64195,-3.87799 6.84305,-5.37036c3.41417,-2.31485 7.55657,-2.98754 11.43931,-3.99687c5.0578,-1.31479 9.81499,-3.92085 14.75735,-5.58046c2.32146,-0.76731 4.83261,-1.66667 7.03782,-2.70249c3.59365,-1.68799 6.53859,-4.83684 10.92087,-3.82768c4.11418,0.94742 4.76228,3.76443 6.42131,6.89786c1.01542,1.91784 2.60484,3.62669 3.05295,5.74999c0.05798,0.27474 0.04511,5.56957 0.04511,6.09777c0,3.86934 0.1698,7.92052 -0.61016,11.73579c-0.61893,3.02758 -2.19645,5.73892 -3.34691,8.57814c-3.06195,4.40008 -5.62662,8.49295 -9.95198,11.75815c-3.00811,2.2708 -7.12828,3.17547 -10.19168,5.39352c-4.10218,2.97018 -7.63803,8.29811 -7.13019,13.47555c0.43234,4.40777 3.90062,8.14345 5.65559,12.06802c3.97501,7.20141 3.7767,15.26609 -3.27801,20.56049c-1.77579,1.33268 -4.02533,1.87503 -6.05017,2.78578c-1.82073,0.81895 -3.58963,1.97026 -5.5737,2.19213c-4.45278,0.49793 -8.4192,-1.30733 -12.52592,-2.62281c-0.86554,-0.27725 -4.95251,-0.97475 -5.48439,-1.17201c-4.31327,-1.59973 -7.55506,-4.74516 -10.04645,-8.45361c-2.55248,-5.69963 -5.0716,-11.48252 -8.37391,-16.76606c-3.04697,-4.87501 -8.49432,-7.58166 -10.60354,-13.04896c-1.79594,-4.65524 -0.73857,-9.81826 -0.73857,-14.70287c0,0 0,-1.71188 1.41657,-2.30249c-0.00683,-0.07534 -0.01032,-0.15164 -0.01032,-0.22876c0,-0.62635 0.23034,-1.1989 0.61093,-1.63756l1.67843,-1.95817l0.1193,0.10226z" fill="#ff0000" stroke="none" stroke-width="0.5" stroke-linecap="butt"/><path d="M222.00688,82.26642c-0.58192,-0.05884 -2.31157,-0.40864 -2.31157,-2.4881c0,-2.5 2.5,-2.5 2.5,-2.5l0.00517,0.01529c2.83095,-0.31046 5.58634,-0.29654 8.43233,-0.29654c8.57197,0 17.18022,-0.16415 25.732,0.28508c11.17582,0.58706 22.098,2.41282 33.1875,3.65625c10.0156,0.01977 18.66135,4.13181 28.24181,6.24187c2.61442,0.57582 5.24669,1.41489 7.86158,1.96584c1.53544,0.32352 4.19834,0.14475 5.64191,0.64588c1.65923,0.57599 2.9611,1.93863 4.60057,2.56866c1.91727,0.73678 4.00278,0.79922 5.49691,2.47364c0.00844,0.00945 0.01684,0.01891 0.02524,0.02839l0.00549,-0.00823l2.49899,1.666c0.43811,0.28294 0.78209,0.69915 0.97459,1.19128c2.00465,0.18028 4.03948,0.31958 5.52897,2.16064c1.34701,1.66496 1.1027,5.17374 1.11071,7.18721c-0.00736,5.67629 -1.72456,10.53633 -2.8678,15.99163c-0.53627,2.55898 -0.57803,6.32508 -1.98194,8.62741c-0.5971,0.97922 -1.77042,1.47446 -2.52072,2.34189c-1.745,2.01744 -3.60246,4.1515 -5.32802,6.16938c-3.22159,3.76735 -6.04028,8.03898 -10.47333,10.65062c-2.69389,1.58704 -5.66445,2.43277 -8.3773,4.05285c-11.19432,3.79268 -22.63424,9.43233 -34.5483,10.6228c-8.53922,0.85325 -17.34614,-0.36056 -25.81007,-1.12548c-9.31193,-1.04692 -18.10919,-3.66476 -26.46056,-7.84503c-2.74085,-1.37193 -5.62728,-2.7787 -7.89441,-4.90299c-2.98231,-2.79441 -4.07121,-6.79655 -6.65293,-9.75239c-0.67392,-0.77159 -1.84755,-1.04744 -2.41589,-1.8998c-2.42699,-3.63986 -2.27846,-8.6972 -1.82664,-12.78318c1.12809,-5.6637 2.09452,-11.34853 4.37946,-16.60441c1.48638,-3.41902 4.893,-4.94985 5.8088,-8.7183c1.08303,-4.45662 0.99866,-11.53356 -0.7546,-15.82608c-0.52746,-1.29138 -1.26041,-2.51076 -1.80793,-3.79206z" fill="#00de17" stroke="none" stroke-width="0.5" stroke-linecap="butt"/><path d="M407.6128,143.76322c1.7946,-0.24603 2.5287,1.58925 2.5287,1.58925l1.15127,2.88108c1.39603,4.21313 1.94079,8.99448 3.85173,13.0134c1.53539,3.22911 4.18349,6.17074 4.95268,9.77211c0.88722,4.15396 -1.17306,7.90984 -1.34194,11.93767c-0.31097,7.41713 0.20288,15.18414 -2.17781,22.26838c-1.75064,3.17578 -2.74119,6.94079 -4.70567,9.9387c-2.83371,4.32443 -6.31694,8.95774 -9.80401,12.68329c-1.32342,1.41393 -3.18558,2.25029 -4.50812,3.66504c-1.20025,1.28393 -1.8655,2.98957 -2.97038,4.35643c-1.32437,1.63838 -3.19058,2.75355 -4.73123,4.19044c-3.4939,3.25859 -7.22586,6.28357 -11.59235,8.42964c-4.19798,3.57749 -9.98933,4.69433 -14.98372,6.94789c-4.38017,1.97641 -8.30265,4.57514 -12.56948,6.70902c-4.57055,2.28577 -9.5707,2.5676 -14.18558,4.55695c-4.66087,2.00916 -9.38683,3.98955 -14.42987,4.90647c-6.31829,2.12071 -13.00101,3.10595 -19.38655,4.77612c-3.67671,0.96166 -7.6735,0.69101 -11.37829,1.43664c-4.12246,0.8297 -8.69133,1.76296 -12.69481,3.03012c-2.45803,0.77801 -5.70375,1.91578 -8.3483,1.24159h-2.8125c-0.61116,0 -1.1711,-0.2193 -1.60542,-0.58351c-4.75275,1.00353 -9.88945,0.58351 -14.70708,0.58351c-6.46875,0 -12.9375,0 -19.40625,0c-4.01926,-0.00425 -7.78999,-0.75114 -11.75576,-1.1351c-7.53363,-0.7294 -15.18866,-0.80944 -22.67595,-1.99093c-1.74415,-0.27522 -3.42258,-0.94183 -5.18085,-1.10403c-3.842,-0.35442 -7.63941,-0.51991 -11.42225,-1.14751c-1.51631,-0.25157 -4.91923,-0.29414 -6.06581,-1.24763c-1.30022,-1.08126 -1.83485,-2.84115 -2.75226,-4.26172c2.05014,-7.67816 7.08518,-11.75869 14.01609,-15.22415c3.61808,-1.80903 6.71316,-3.67109 10.78818,-4.44095c3.77198,-0.71261 7.88819,-0.32298 11.70486,-0.32298c5.625,0 11.25,0 16.875,0c4.31059,0 8.94981,0.50158 13.2272,0.01493c2.67094,-0.30389 5.29209,-0.99136 8.00954,-1.1361c12.16966,-0.64819 25.26116,-1.74282 35.80894,-8.43027c12.06247,-5.38868 24.32666,-12.78743 31.39018,-24.41913c3.02261,-4.97742 3.29397,-10.51181 5.65857,-15.7809c1.08105,-4.81073 3.82327,-9.13583 6.91484,-12.90224c1.35015,-1.64487 2.3167,-3.63603 3.91012,-5.04652c3.80603,-3.36909 8.54395,-5.32681 13.00923,-7.44812c3.52871,-1.67638 6.60291,-4.17776 10.38239,-5.4447c4.72173,-1.58281 9.77985,-2.09093 14.73194,-2.09187c9.93799,-0.90346 22.98522,-1.69484 30.01113,-9.83408c1.43713,-1.66485 3.33028,-3.47409 4.01873,-5.63608c0.73668,-2.31344 1.31417,-4.92604 1.56748,-7.33974c0,0 0.27607,-2.48471 2.76078,-2.20863c0.36346,0.04038 0.66784,0.12803 0.92266,0.24824z" fill="#2f00ff" stroke="none" stroke-width="0.5" stroke-linecap="butt"/><path d="M352.01563,229.90626l-202.78125,2.8125l1.125,-72h-22.5l0.28125,-22.5l63,-0.84375l-0.5625,23.34375h-18.28125l-0.28125,53.15625h30.9375h14.34375l0.28125,-76.5h19.96875c0,0 0.08488,23.17128 0.12982,35.43908c0.04853,13.25019 0.15143,41.34217 0.15143,41.34217l37.96875,-0.5625l58.78125,-0.9375v-35.4375h-27.28125v11.25h11.8125v9.5625h-39.375v-44.71875h55.40625v-16.03125h-75.9375v74.25" fill="none" stroke="#976700" stroke-width="7.5" stroke-linecap="round"/><path d="M352.07812,224.90625l-202.78125,2.8125l1.125,-72h-22.5l0.28125,-22.5l63,-0.84375l-0.5625,23.34375h-18.28125l-0.28125,53.15625h30.9375h14.34375l0.28125,-76.5h19.96875c0,0 0.08488,23.17128 0.12982,35.43908c0.04853,13.25019 0.15143,41.34217 0.15143,41.34217l37.96875,-0.5625l58.78125,-0.9375v-35.4375h-27.28125v11.25h11.8125v9.5625h-39.375v-44.71875h55.40625v-16.03125h-75.9375v74.25" fill="none" stroke="#eba100" stroke-width="7.5" stroke-linecap="round"/><path d="M67.78906,204.80957c1.15501,0 1.77639,0.53361 2.1107,1.10778c0.70901,0.0799 1.2448,0.43709 1.2448,0.43709c4.7144,3.19881 10.70014,4.13014 16.2883,4.65393c11.13241,1.04347 22.15898,0.64974 33.15899,2.84974c5.31615,1.06835 9.27407,3.55843 14.21258,5.47128c3.06971,1.189 6.07448,2.50137 8.74012,4.54681c0.48813,0.37456 3.70912,3.72768 4.41189,4.38031c2.65068,2.46159 5.79227,4.71414 7.92323,7.68503c2.32211,3.23738 2.43359,7.40899 3.70281,11.03158c0.75699,2.1606 2.17668,4.31174 3.19957,6.36356c2.9443,4.71087 6.76117,10.51394 5.64834,16.40193c-0.27624,1.46155 -0.31634,3.2862 -1.48326,4.20857c-2.66012,2.10263 -7.30901,-0.42349 -9.91262,-1.2542c-1.78143,-0.56838 -3.36978,-1.63825 -5.12898,-2.27208c-1.55949,-0.56187 -3.31079,-0.35522 -4.90879,-0.79579c-6.32794,-1.74463 -13.22028,-4.07912 -18.78697,-7.51409c-4.57277,-2.01946 -9.58091,-3.4223 -13.87817,-5.96054c-2.44888,-1.44647 -4.05072,-3.64635 -6.46447,-5.05998c-1.55124,-0.9085 -3.4577,-1.07502 -5.02855,-1.94917c-0.75526,-0.4203 -1.21598,-1.26277 -1.96875,-1.6875c-3.99022,-2.25137 -8.59685,-3.67447 -12.21107,-6.74898c-0.6287,-0.53482 -0.94728,-1.38279 -1.59572,-1.89351c-1.48494,-1.16955 -3.45854,-1.77766 -4.65073,-3.24449c-1.21313,-1.49259 -1.87286,-3.36504 -2.94227,-4.96376c-4.55508,-7.33211 -12.15512,-13.88394 -14.12143,-22.46994l-0.05953,-0.82358c0,0 0,-2.5 2.5,-2.5z" fill="#eaba00" stroke="none" stroke-width="0.5" stroke-linecap="butt"/></g></g></svg>